<svg xmlns="http://www.w3.org/2000/svg" viewBox="0 0 466.11 380.39"><defs><style>.cls-1{fill:#fff16c;}.cls-2{fill:#a2ce63;}.cls-3{fill:#3699d6;}.cls-4{fill:#ce4eb3;}.cls-5{fill:#ea5c7a;}.cls-6{fill:#d3001a;}.cls-7{fill:#e9d600;}.cls-8{fill:#82b541;}.cls-9{fill:#0664ab;}.cls-10{fill:#a22181;}.cls-11{fill:#05254b;}</style></defs><g id="Layer_2" data-name="Layer 2"><g id="Layer_1-2" data-name="Layer 1"><path class="cls-1" d="M466.11,190.7c-9.76-2.37-18.33-4.45-27.16-5.33-15.73-1.56-31.19-1.31-45.58,6.37-2.7,1.43-3.11-.41-4-1.9-16.42-26.36-37.85-47.91-63.15-65.73-29.62-20.86-66.9-35.22-103.32-40.37C270.07,75.65,316,80.14,360.18,99,404.79,118,438.89,149.33,466.11,190.7Z"/><path class="cls-2" d="M403.62,307.66c-6.06-7.06-12.09-13.16-19.44-17.71-5.91-3.64-12-6.8-19.39-5.25-3.16.66-2-2-2-3.32A221.5,221.5,0,0,0,358,238.11c-7.41-35.53-21.55-67.76-47-94.38a171.45,171.45,0,0,0-23.81-20.24C362.6,145.49,409.81,218.12,403.62,307.66Z"/><path class="cls-3" d="M333.47,347.19a228.2,228.2,0,0,1-21,31.16,3.1,3.1,0,0,0-.42.7v0c-.09.17-.17.35-.25.53a.42.42,0,0,1,0,.1l-.19.42c-.05.09-.09.18-.13.27-3.2-18.53-7.88-35.54-15.07-51.86-1-2.32-1.18-3.65,1.22-5.22,23.69-15.44,32.95-38.42,33.65-65.62.46-17.92-3.33-35.21-8.53-52.25-.21-.7-.37-1.41-.91-3.39l0,0c14.67,18.12,24.89,36.9,28.77,58.77C356.13,291.87,348.28,320.22,333.47,347.19Z"/><path class="cls-4" d="M307.92,283.63c-17.84,40.78-47.22,70.63-85,92.55l-.06,0q-2.89,1.69-5.86,3.31c8.57-15.36,19.92-29.82,12.87-49.47,32.26-2.78,57.25-18.14,76.14-43.82.34-.49.66-.91.91-1.26.11-.15.22-.29.31-.44Z"/><path class="cls-5" d="M425.79,33.63c-.47-.27-21.47-8.71-30.94-12.12C361,9.35,326.07,1.74,289.71.26q-15-.6-29.66.19a290.5,290.5,0,0,0-58.27,9.07,295.51,295.51,0,0,0-82.66,36.2,268.07,268.07,0,0,0-45,35.14A151.7,151.7,0,0,0,63.59,93.32C65.53,91.93,219.59-18,425.79,33.63Z"/><path class="cls-6" d="M399,46.65c1.59-1,3.21-1.88,4.85-2.78,4.6-2.54,9.34-4.82,14.2-7q3.18-1.39,6.42-2.73l1.32-.55C219.59-18,65.54,91.91,63.6,93.31c9.48-3.74,18.93-7.48,28.46-11q6.3-2.33,12.66-4.48,13.35-4.48,26.81-8.19C169.17,59.35,207.58,53.94,247.06,55s77.81,7.69,114.05,24.09a12.47,12.47,0,0,0,1.29.54,1.8,1.8,0,0,0,2.08-.47,4.46,4.46,0,0,0,.65-.88q1.53-2.61,3.25-5C376.36,62,387.19,53.82,399,46.65Z"/><path class="cls-7" d="M466.11,190.7c-9.76-2.37-18.33-4.45-27.16-5.33-15.73-1.56-31.19-1.31-45.58,6.37-2.7,1.43-3.11-.41-4-1.9-16.42-26.36-37.85-47.91-63.15-65.73-29.62-20.86-66.9-35.22-103.32-40.37C222.88,83.74,354.06,83.1,466.11,190.7Z"/><path class="cls-8" d="M403.62,307.66c-6.06-7.06-12.09-13.16-19.44-17.71-5.91-3.64-12-6.8-19.39-5.25-3.16.66-2-2-2-3.32A221.5,221.5,0,0,0,358,238.11c-7.41-35.53-21.55-67.76-47-94.38a171.45,171.45,0,0,0-23.81-20.24C288.69,124.13,382.7,165.83,403.62,307.66Z"/><path class="cls-9" d="M312.09,379.05v0c-.08.17-.16.35-.25.53a.42.42,0,0,1,0,.1l-.19.42c-.05.09-.09.18-.13.27-3.2-18.53-7.88-35.54-15.07-51.86-1-2.32-1.18-3.65,1.22-5.22,23.69-15.44,32.95-38.42,33.65-65.62.46-17.92-3.33-35.21-8.53-52.25-.21-.7-.37-1.41-.91-3.39l0,0C323.51,204.31,365.08,262.47,312.09,379.05Z"/><path class="cls-10" d="M306,286.24c-9.45,13-52.07,70.32-83.09,89.94l-.06,0a61.16,61.16,0,0,1-5.86,3.31c8.57-15.36,19.92-29.82,12.87-49.47C262.16,327.28,287.15,311.92,306,286.24Z"/><path class="cls-11" d="M211.07,101.9a27.72,27.72,0,0,1,5.25.81,30.19,30.19,0,0,1,6.86,2.42A29.57,29.57,0,0,1,229,109c1.75,1.48,2.63,3,2.63,4.64a31.5,31.5,0,0,1-.81,5.85c-.55,2.56-1.21,5.12-2,7.67a37.35,37.35,0,0,1-3,7.07q-1.81,3.23-4.24,3.22h-2.42c-27.3-2.48-54.18-7.08-80.93,1.42-33.53,10.65-68.91,34.78-80.66,69.45-4.93,14.55-5.23,30.23-4.72,45.58,1,31.2,10.88,64.51,45,72.46,14,3.26,29,3.23,43.21,2.85,7.66-.2,15.31-.69,22.95-1.37,3.59-.33,20.55-4.58,22.91-2.69,2.69,2.16,4,3.5,4,4q0,13.72-7.46,20.79a46.53,46.53,0,0,1-18.37,10.49C130.82,371.2,84.52,367.49,52.84,351,19.49,333.56,4.38,298.55.55,262.33c-4.55-43,19.66-86.53,48.69-116.71,20.47-21.27,44.28-30.37,72-38.27q22-6.25,81.74-5.45Z"/><path class="cls-11" d="M63.63,239.75c0-.12,0-.34,0-.66s0-.68,0-1.07v-1.73a19.13,19.13,0,0,1,1.28-7.17,14.45,14.45,0,0,1,3.69-5.34,16.89,16.89,0,0,1,5.7-3.37,21.09,21.09,0,0,1,7.25-1.2,19.6,19.6,0,0,1,5.13.62,11.66,11.66,0,0,1,4,1.88A8.49,8.49,0,0,1,93.27,225,11.82,11.82,0,0,1,94.2,230a17.91,17.91,0,0,1-.15,2c-.1.85-.25,1.73-.44,2.64a18.6,18.6,0,0,1-.74,2.58,16,16,0,0,1-1.79,3.19,22.34,22.34,0,0,1-2.93,3.51,13.22,13.22,0,0,1-3.55,2.42,19.54,19.54,0,0,1-4.19,1.35,22.11,22.11,0,0,1-4.4.44,16.28,16.28,0,0,1-4.1-.51,13.24,13.24,0,0,1-3.62-1.51,10.5,10.5,0,0,1-2.86-2.55A10.25,10.25,0,0,1,63.63,239.75ZM69,237.27a6.52,6.52,0,0,0,2.2,5,7.22,7.22,0,0,0,2.35,1.38,8.62,8.62,0,0,0,2.91.48,11.24,11.24,0,0,0,5-1.1,12.14,12.14,0,0,0,3.81-2.93,13.39,13.39,0,0,0,2.44-4.17,14.24,14.24,0,0,0,.87-5,10.34,10.34,0,0,0-.42-2.91,7.82,7.82,0,0,0-1.27-2.57,6,6,0,0,0-2.13-1.8,6.49,6.49,0,0,0-3.06-.67,12.24,12.24,0,0,0-5.48,1.18,11.71,11.71,0,0,0-4,3.15,14,14,0,0,0-2.42,4.53A17.37,17.37,0,0,0,69,237.27Z"/><path class="cls-11" d="M115.19,241l5-21.79H125l-6,28.84h-7.1l-7.76-20.9L99,248.09H94.91l6.31-28.84h5.85Q115.07,241,115.19,241Z"/><path class="cls-11" d="M124.16,239.75q0-.18,0-.66c0-.33,0-.68,0-1.07v-1.73a18.93,18.93,0,0,1,1.29-7.17,14.62,14.62,0,0,1,3.66-5.34,16.61,16.61,0,0,1,5.66-3.37,20.93,20.93,0,0,1,7.23-1.2,19.43,19.43,0,0,1,5.08.62,11.34,11.34,0,0,1,4,1.88,8.56,8.56,0,0,1,2.6,3.31,11.82,11.82,0,0,1,.93,4.93,17.91,17.91,0,0,1-.15,2q-.17,1.28-.45,2.64a18.61,18.61,0,0,1-.73,2.58,10.53,10.53,0,0,1-1.66,2.73c-.82,1-1.55,2-2.2,2.86l3.86,2.84L151,248.09l-4-2.84c-.44.24-1.2.62-2.28,1.16a15.89,15.89,0,0,1-3.84,1.24,22,22,0,0,1-4.39.44,16.13,16.13,0,0,1-4.06-.51,12.86,12.86,0,0,1-3.6-1.51,10.72,10.72,0,0,1-2.84-2.55A10.08,10.08,0,0,1,124.16,239.75Zm5.36-2.57a6.68,6.68,0,0,0,.6,2.9,6.84,6.84,0,0,0,3.95,3.58,8.62,8.62,0,0,0,2.91.48,13.42,13.42,0,0,0,6.21-1.86l-6.57-4.7,2.49-2.27,6.74,4.71a13.56,13.56,0,0,0,2.38-4.15,14.62,14.62,0,0,0,.86-5,10.78,10.78,0,0,0-.42-3,7.81,7.81,0,0,0-1.26-2.57,6.32,6.32,0,0,0-2.13-1.77,6.52,6.52,0,0,0-3.06-.67,12.34,12.34,0,0,0-5.48,1.15,11.41,11.41,0,0,0-4,3.15,14.18,14.18,0,0,0-2.41,4.57A17.71,17.71,0,0,0,129.52,237.18Z"/><path class="cls-11" d="M155.35,241.93q0-2.85,4.44-22.68h4.92q-4.12,17.58-3.64,20.24a9.28,9.28,0,0,0,.14,1.48,4.49,4.49,0,0,0,.51,1.51,3.61,3.61,0,0,0,1,1.15,2.43,2.43,0,0,0,1.53.47,19.68,19.68,0,0,0,5.33,0,6.81,6.81,0,0,0,2.46-1.24,8.68,8.68,0,0,0,2.13-2.66q1-1.78,5.44-20.95h4.74Q180.78,237,180,239.11a17.47,17.47,0,0,1-1.82,3.73,10.32,10.32,0,0,1-2.79,2.84,12.84,12.84,0,0,1-4.17,1.79,24.55,24.55,0,0,1-6,.62,23.8,23.8,0,0,1-3.28-.24,11.88,11.88,0,0,1-3.22-.91,6.64,6.64,0,0,1-2.46-1.86A4.79,4.79,0,0,1,155.35,241.93Z"/><path class="cls-11" d="M190.05,219.25h19.88l-1.25,3.55H194.31l-2,8.7h13l-1.06,3.9H191.47l-1.95,8.79H203.8L202.47,248l-3.5.09H183.3Z"/><path class="cls-11" d="M215.07,219.25h10.48a23.93,23.93,0,0,1,4.12.56,9.29,9.29,0,0,1,2.53,1,4.84,4.84,0,0,1,1.71,1.77,5.74,5.74,0,0,1,.64,2.86,11.67,11.67,0,0,1-.88,4.64,10.18,10.18,0,0,1-2.47,3.51,17.16,17.16,0,0,1-5.3,2.86L231,248.09h-5.19l-5.37-13.31.18-1.15c.82-.15,1.77-.33,2.84-.56a9.23,9.23,0,0,0,2.72-1,5.39,5.39,0,0,0,1.89-1.82,5.59,5.59,0,0,0,.75-3,4.88,4.88,0,0,0-.13-1,4.73,4.73,0,0,0-.42-1.18,3.42,3.42,0,0,0-.71-.95,1.38,1.38,0,0,0-1-.4h-7l-5.86,24.4h-4.43l-.54-.09Z"/><path class="cls-11" d="M235.35,239.75c0-.12,0-.34,0-.66s0-.68,0-1.07v-1.73a19.13,19.13,0,0,1,1.28-7.17,14.45,14.45,0,0,1,3.69-5.34,16.7,16.7,0,0,1,5.7-3.37,21.09,21.09,0,0,1,7.25-1.2,19.6,19.6,0,0,1,5.13.62,11.53,11.53,0,0,1,4,1.88A8.42,8.42,0,0,1,265,225a11.82,11.82,0,0,1,.93,4.93,17.91,17.91,0,0,1-.15,2c-.11.85-.25,1.73-.45,2.64a17.32,17.32,0,0,1-.73,2.58,16,16,0,0,1-1.79,3.19,22.34,22.34,0,0,1-2.93,3.51,13.22,13.22,0,0,1-3.55,2.42,19.45,19.45,0,0,1-4.2,1.35,22,22,0,0,1-4.39.44,16.28,16.28,0,0,1-4.1-.51,13.12,13.12,0,0,1-3.62-1.51,10.5,10.5,0,0,1-2.86-2.55A10.09,10.09,0,0,1,235.35,239.75Zm5.37-2.48a6.52,6.52,0,0,0,2.2,5,7.22,7.22,0,0,0,2.35,1.38,8.61,8.61,0,0,0,2.9.48,11.26,11.26,0,0,0,5-1.1,12.14,12.14,0,0,0,3.81-2.93,13.39,13.39,0,0,0,2.44-4.17,14.24,14.24,0,0,0,.87-5,10.34,10.34,0,0,0-.42-2.91,8,8,0,0,0-1.27-2.57,6,6,0,0,0-2.13-1.8,6.52,6.52,0,0,0-3.06-.67,12.24,12.24,0,0,0-5.48,1.18,11.61,11.61,0,0,0-4,3.15,13.8,13.8,0,0,0-2.42,4.53A17.37,17.37,0,0,0,240.72,237.27Z"/><path class="cls-11" d="M273,219.25h10.47a23.92,23.92,0,0,1,4.13.56,9.29,9.29,0,0,1,2.53,1,4.84,4.84,0,0,1,1.71,1.77,5.74,5.74,0,0,1,.64,2.86,11.5,11.5,0,0,1-.89,4.64,10,10,0,0,1-2.46,3.51,17.28,17.28,0,0,1-5.3,2.86l5.06,11.62h-5.19l-5.37-13.31.18-1.15c.82-.15,1.77-.33,2.84-.56a9.23,9.23,0,0,0,2.72-1,5.39,5.39,0,0,0,1.89-1.82,5.59,5.59,0,0,0,.75-3,4.88,4.88,0,0,0-.13-1,4.73,4.73,0,0,0-.42-1.18,3.42,3.42,0,0,0-.71-.95,1.38,1.38,0,0,0-1-.4h-7l-5.86,24.4h-4.43l-.54-.09Z"/><path class="cls-11" d="M293.68,247.41a1.29,1.29,0,0,1,0-.25,1.15,1.15,0,0,1,0-.24c0-.11,0-.17,0-.2a4.31,4.31,0,0,1,.2-.69c.1-.28.2-.55.29-.82s.17-.5.24-.69.13-.29.16-.29h10.65a3.05,3.05,0,0,0,1.22-.24,2,2,0,0,0,.91-.87,6.76,6.76,0,0,0,.53-1.15c.12-.35.24-.77.35-1.24-.11-.48-.2-.87-.26-1.18a1.84,1.84,0,0,0-.53-.91l-8-8.07a8.1,8.1,0,0,1-.82-1,3.11,3.11,0,0,1-.42-.89,4.19,4.19,0,0,1-.16-1c0-.34,0-.73,0-1.17a6.66,6.66,0,0,1,.71-3.2,6.31,6.31,0,0,1,1.91-2.19,8.53,8.53,0,0,1,2.73-1.31,15.63,15.63,0,0,1,3.08-.58h10.83l-.54,3.2-1.33.71h-8.87a1.25,1.25,0,0,0-.85.35,3.82,3.82,0,0,0-.7.87,6.31,6.31,0,0,0-.52,1,2.69,2.69,0,0,0-.2.89,3.49,3.49,0,0,0,.76,2.08A15.56,15.56,0,0,0,307,230.5c.77.73,1.59,1.47,2.48,2.24s1.72,1.56,2.49,2.37a13,13,0,0,1,1.91,2.6,6,6,0,0,1,.75,2.88,6.31,6.31,0,0,1-.8,3.29,9.87,9.87,0,0,1-2.11,2.46,5.83,5.83,0,0,1-2.9,1.4,23.1,23.1,0,0,1-3.44.29l-3.51,0c-1.11,0-2.09,0-2.95,0l-4.48-.09-.71-.39S293.69,247.51,293.68,247.41Z"/></g></g></svg>